<?xml version="1.0" encoding="UTF-8" standalone="no"?>
<!DOCTYPE svg PUBLIC "-//W3C//DTD SVG 1.1//EN" "http://www.w3.org/Graphics/SVG/1.1/DTD/svg11.dtd">
<svg width="100%" height="100%" viewBox="0 0 99 99" version="1.1" xmlns="http://www.w3.org/2000/svg" xmlns:xlink="http://www.w3.org/1999/xlink" xml:space="preserve" xmlns:serif="http://www.serif.com/" style="fill-rule:evenodd;clip-rule:evenodd;stroke-linejoin:round;stroke-miterlimit:2;">
    <g transform="matrix(1.08121,0,0,1.08121,-22.1104,-5.96621)">
        <g transform="matrix(1.13636,0,0,1.13636,-9.031,-6.99563)">
            <path d="M96.753,36.039C96.753,27.617 89.915,20.779 81.492,20.779L50.971,20.779C42.548,20.779 35.71,27.617 35.71,36.039L35.71,66.561C35.71,74.983 42.548,81.822 50.971,81.822L81.492,81.822C89.915,81.822 96.753,74.983 96.753,66.561L96.753,36.039Z" style="fill:rgb(50,209,0);"/>
        </g>
        <g transform="matrix(3.46918,0,0,3.46918,-59.0531,-96.3563)">
            <g transform="matrix(12,0,0,12,29.3285,46.5613)">
                <path d="M0.147,0L0.006,0L0.227,-0.667L0.395,-0.667L0.614,0L0.463,0L0.414,-0.166L0.197,-0.166L0.147,0ZM0.31,-0.534L0.303,-0.534L0.225,-0.27L0.387,-0.27L0.31,-0.534Z" style="fill:white;fill-rule:nonzero;"/>
            </g>
            <g transform="matrix(12,0,0,12,36.7757,46.5613)">
                <path d="M0.504,-0.114L0.504,0L0.069,0L0.069,-0.667L0.504,-0.667L0.504,-0.552L0.209,-0.552L0.209,-0.39L0.486,-0.39L0.486,-0.284L0.209,-0.284L0.209,-0.114L0.504,-0.114Z" style="fill:white;fill-rule:nonzero;"/>
            </g>
        </g>
    </g>
</svg>