<?xml version="1.0" encoding="UTF-8" standalone="no"?>
<!DOCTYPE svg PUBLIC "-//W3C//DTD SVG 1.1//EN" "http://www.w3.org/Graphics/SVG/1.1/DTD/svg11.dtd">
<svg width="100%" height="100%" viewBox="0 0 99 99" version="1.1" xmlns="http://www.w3.org/2000/svg" xmlns:xlink="http://www.w3.org/1999/xlink" xml:space="preserve" xmlns:serif="http://www.serif.com/" style="fill-rule:evenodd;clip-rule:evenodd;stroke-linejoin:round;stroke-miterlimit:2;">
    <g transform="matrix(1.08121,0,0,1.08121,-22.1104,-5.96621)">
        <path d="M96.753,36.039C96.753,27.617 89.915,20.779 81.492,20.779L50.971,20.779C42.548,20.779 35.71,27.617 35.71,36.039L35.71,66.561C35.71,74.983 42.548,81.822 50.971,81.822L81.492,81.822C89.915,81.822 96.753,74.983 96.753,66.561L96.753,36.039Z" style="fill:rgb(50,209,0);"/>
    </g>
	<g transform="matrix(3.15634,0,0,3.15634,-38.1409,-149.745)">
        <g transform="matrix(12,0,0,12,20.3662,67.0481)">
            <path d="M0.147,0L0.006,0L0.227,-0.667L0.395,-0.667L0.614,0L0.463,0L0.414,-0.166L0.197,-0.166L0.147,0ZM0.31,-0.534L0.303,-0.534L0.225,-0.27L0.387,-0.27L0.31,-0.534Z" style="fill:white;fill-rule:nonzero;"/>
        </g>
		<g transform="matrix(12,0,0,12,27.8135,67.0481)">
            <path d="M0.203,-0.667L0.203,-0.246C0.203,-0.201 0.214,-0.167 0.238,-0.143C0.262,-0.119 0.294,-0.107 0.334,-0.107C0.374,-0.107 0.406,-0.119 0.429,-0.143C0.453,-0.168 0.465,-0.202 0.465,-0.246L0.465,-0.667L0.606,-0.667L0.606,-0.231C0.606,-0.157 0.582,-0.098 0.532,-0.054C0.483,-0.01 0.417,0.013 0.334,0.013C0.251,0.013 0.185,-0.01 0.136,-0.054C0.086,-0.099 0.062,-0.158 0.062,-0.232L0.062,-0.667L0.203,-0.667Z" style="fill:white;fill-rule:nonzero;"/>
        </g>
    </g>
</svg>